<svg id="visual" viewBox="0 0 675 900" width="675" height="900" xmlns="http://www.w3.org/2000/svg" xmlns:xlink="http://www.w3.org/1999/xlink" version="1.1"><rect x="0" y="0" width="675" height="900" fill="#001220"></rect><defs><linearGradient id="grad1_0" x1="0%" y1="0%" x2="100%" y2="100%"><stop offset="30%" stop-color="#6600ff" stop-opacity="1"></stop><stop offset="70%" stop-color="#6600ff" stop-opacity="1"></stop></linearGradient></defs><defs><linearGradient id="grad1_1" x1="0%" y1="0%" x2="100%" y2="100%"><stop offset="30%" stop-color="#6600ff" stop-opacity="1"></stop><stop offset="70%" stop-color="#0034d3" stop-opacity="1"></stop></linearGradient></defs><defs><linearGradient id="grad1_2" x1="0%" y1="0%" x2="100%" y2="100%"><stop offset="30%" stop-color="#003299" stop-opacity="1"></stop><stop offset="70%" stop-color="#0034d3" stop-opacity="1"></stop></linearGradient></defs><defs><linearGradient id="grad1_3" x1="0%" y1="0%" x2="100%" y2="100%"><stop offset="30%" stop-color="#003299" stop-opacity="1"></stop><stop offset="70%" stop-color="#00255b" stop-opacity="1"></stop></linearGradient></defs><defs><linearGradient id="grad1_4" x1="0%" y1="0%" x2="100%" y2="100%"><stop offset="30%" stop-color="#001220" stop-opacity="1"></stop><stop offset="70%" stop-color="#00255b" stop-opacity="1"></stop></linearGradient></defs><defs><linearGradient id="grad2_0" x1="0%" y1="0%" x2="100%" y2="100%"><stop offset="30%" stop-color="#6600ff" stop-opacity="1"></stop><stop offset="70%" stop-color="#6600ff" stop-opacity="1"></stop></linearGradient></defs><defs><linearGradient id="grad2_1" x1="0%" y1="0%" x2="100%" y2="100%"><stop offset="30%" stop-color="#0034d3" stop-opacity="1"></stop><stop offset="70%" stop-color="#6600ff" stop-opacity="1"></stop></linearGradient></defs><defs><linearGradient id="grad2_2" x1="0%" y1="0%" x2="100%" y2="100%"><stop offset="30%" stop-color="#0034d3" stop-opacity="1"></stop><stop offset="70%" stop-color="#003299" stop-opacity="1"></stop></linearGradient></defs><defs><linearGradient id="grad2_3" x1="0%" y1="0%" x2="100%" y2="100%"><stop offset="30%" stop-color="#00255b" stop-opacity="1"></stop><stop offset="70%" stop-color="#003299" stop-opacity="1"></stop></linearGradient></defs><defs><linearGradient id="grad2_4" x1="0%" y1="0%" x2="100%" y2="100%"><stop offset="30%" stop-color="#00255b" stop-opacity="1"></stop><stop offset="70%" stop-color="#001220" stop-opacity="1"></stop></linearGradient></defs><g transform="translate(675, 0)"><path d="M0 450C-36.5 439.8 -73 429.6 -113.4 423.1C-153.7 416.5 -197.8 413.6 -223.5 387.1C-249.2 360.6 -256.5 310.6 -280.7 280.7C-304.9 250.8 -346 241 -375.9 217C-405.7 193 -424.2 155 -434.7 116.5C-445.1 78 -447.6 39 -450 0L0 0Z" fill="#001c3d"></path><path d="M0 360C-29.2 351.9 -58.4 343.7 -90.7 338.5C-122.9 333.2 -158.2 330.9 -178.8 309.7C-199.4 288.5 -205.2 248.5 -224.6 224.6C-243.9 200.6 -276.8 192.8 -300.7 173.6C-324.5 154.4 -339.4 124 -347.7 93.2C-356.1 62.4 -358.1 31.2 -360 0L0 0Z" fill="#002c7a"></path><path d="M0 270C-21.9 263.9 -43.8 257.8 -68 253.8C-92.2 249.9 -118.7 248.1 -134.1 232.3C-149.5 216.4 -153.9 186.4 -168.4 168.4C-183 150.5 -207.6 144.6 -225.5 130.2C-243.4 115.8 -254.5 93 -260.8 69.9C-267.1 46.8 -268.5 23.4 -270 0L0 0Z" fill="#0035b7"></path><path d="M0 180C-14.6 175.9 -29.2 171.9 -45.3 169.2C-61.5 166.6 -79.1 165.4 -89.4 154.8C-99.7 144.3 -102.6 124.3 -112.3 112.3C-122 100.3 -138.4 96.4 -150.3 86.8C-162.3 77.2 -169.7 62 -173.9 46.6C-178.1 31.2 -179 15.6 -180 0L0 0Z" fill="#1b2aeb"></path><path d="M0 90C-7.3 88 -14.6 85.9 -22.7 84.6C-30.7 83.3 -39.6 82.7 -44.7 77.4C-49.8 72.1 -51.3 62.1 -56.1 56.1C-61 50.2 -69.2 48.2 -75.2 43.4C-81.1 38.6 -84.8 31 -86.9 23.3C-89 15.6 -89.5 7.8 -90 0L0 0Z" fill="#6600ff"></path></g><g transform="translate(0, 900)"><path d="M0 -450C31.1 -418.9 62.2 -387.9 103 -384.4C143.8 -381 194.2 -405.3 225 -389.7C255.8 -374.2 266.9 -318.9 279.3 -279.3C291.8 -239.8 305.5 -216 333.4 -192.5C361.3 -169 403.2 -145.9 425 -113.9C446.8 -81.9 448.4 -40.9 450 0L0 0Z" fill="#001c3d"></path><path d="M0 -360C24.9 -335.1 49.8 -310.3 82.4 -307.6C115 -304.8 155.4 -324.2 180 -311.8C204.6 -299.3 213.5 -255.1 223.4 -223.4C233.4 -191.8 244.4 -172.8 266.7 -154C289 -135.2 322.6 -116.7 340 -91.1C357.4 -65.5 358.7 -32.7 360 0L0 0Z" fill="#002c7a"></path><path d="M0 -270C18.7 -251.4 37.3 -232.7 61.8 -230.7C86.3 -228.6 116.5 -243.2 135 -233.8C153.5 -224.5 160.1 -191.3 167.6 -167.6C175.1 -143.9 183.3 -129.6 200.1 -115.5C216.8 -101.4 241.9 -87.5 255 -68.3C268.1 -49.1 269 -24.6 270 0L0 0Z" fill="#0035b7"></path><path d="M0 -180C12.4 -167.6 24.9 -155.1 41.2 -153.8C57.5 -152.4 77.7 -162.1 90 -155.9C102.3 -149.7 106.7 -127.5 111.7 -111.7C116.7 -95.9 122.2 -86.4 133.4 -77C144.5 -67.6 161.3 -58.4 170 -45.6C178.7 -32.7 179.4 -16.4 180 0L0 0Z" fill="#1b2aeb"></path><path d="M0 -90C6.2 -83.8 12.4 -77.6 20.6 -76.9C28.8 -76.2 38.8 -81.1 45 -77.9C51.2 -74.8 53.4 -63.8 55.9 -55.9C58.4 -48 61.1 -43.2 66.7 -38.5C72.3 -33.8 80.6 -29.2 85 -22.8C89.4 -16.4 89.7 -8.2 90 0L0 0Z" fill="#6600ff"></path></g></svg>